<?xml version="1.0" standalone="no"?><!DOCTYPE svg PUBLIC "-//W3C//DTD SVG 1.1//EN" "http://www.w3.org/Graphics/SVG/1.1/DTD/svg11.dtd"><svg t="1614095486477" class="icon" viewBox="0 0 1024 1024" version="1.1" xmlns="http://www.w3.org/2000/svg" p-id="2127" xmlns:xlink="http://www.w3.org/1999/xlink" width="64" height="64"><defs><style type="text/css"></style></defs><path d="M512.007 1020.59c-280.887 0-508.594-227.738-508.594-508.587S231.12 3.41 512.007 3.41s508.58 227.707 508.58 508.593c0 280.894-227.731 508.587-508.58 508.587z m278.279-537.378a19.139 19.139 0 0 0-19.135-19.135H559.988V252.914a19.135 19.135 0 0 0-19.135-19.135h-57.627a19.135 19.135 0 0 0-19.139 19.135v211.118h-211.17a19.135 19.135 0 0 0-19.134 19.139v57.58a19.135 19.135 0 0 0 19.135 19.135h211.121v211.2a19.135 19.135 0 0 0 19.135 19.138h57.58a19.139 19.139 0 0 0 19.138-19.138V559.985h211.2a19.135 19.135 0 0 0 19.132-19.139l0.062-57.634z" p-id="2128"></path></svg>