<?xml version="1.0" standalone="no"?><!DOCTYPE svg PUBLIC "-//W3C//DTD SVG 1.1//EN" "http://www.w3.org/Graphics/SVG/1.1/DTD/svg11.dtd"><svg t="1614068858911" class="icon" viewBox="0 0 1024 1024" version="1.1" xmlns="http://www.w3.org/2000/svg" p-id="1917" xmlns:xlink="http://www.w3.org/1999/xlink" width="64" height="64"><defs><style type="text/css"></style></defs><path d="M507.820625 63.05614583v0zM839.8540625 196.46989583c-9.4284375-49.84125-51.601875-69.748125-97.0509375-89.686875-44.81625-19.648125-152.23875-43.1053125-231.55875-43.7484375-79.2909375 0.6215625-186.765 24.091875-231.59625 43.8028125-45.4509375 19.9265625-87.6346875 39.781875-97.156875 89.6409375l-22.194375 276.1659375v380.5790625h58.805625v59.625c0 72.7996875 97.2703125 72.7996875 97.2703125 0v-59.71125h389.715v59.71125c0 72.7996875 97.35 72.7996875 97.35 0v-59.71125h58.7165625v-380.48625l-22.310625-276.204375zM366.8515625 132.68239583h288.7153125c28.404375 0 28.404375 44.9690625 0 44.9690625h-288.7153125c-28.498125 0.0009375-28.498125-44.9690625 0-44.9690625v0zM222.119375 463.57677083l26.521875-200.3953125c3.616875-24.395625 11.4609375-40.365 41.5078125-40.365h442.0021875c29.994375 0 37.903125 15.9815625 41.49375 40.365l26.58 200.3953125c2.4065625 19.1821875-2.840625 38.2809375-28.03125 38.2809375h-522.110625c-25.19625-0.0909375-30.4490625-19.1015625-27.95625-38.2809375v0zM329.294375 700.62739583c0 11.4609375-8.775 20.81625-19.7146875 20.81625h-79.845c-10.8928125 0-19.678125-9.328125-19.678125-20.81625v-35.499375c0-11.4609375 8.805-20.8378125 19.678125-20.8378125h79.845c10.9303125 0 19.7146875 9.36 19.7146875 20.8378125v35.499375zM812.4246875 700.62739583c0 11.4609375-8.8790625 20.81625-19.7334375 20.81625h-79.8665625c-10.90125 0-19.7146875-9.328125-19.7146875-20.81625v-35.499375c0-11.4609375 8.83875-20.8378125 19.7146875-20.8378125h79.8665625c10.8928125 0 19.7334375 9.36 19.7334375 20.8378125v35.499375zM812.4246875 700.62739583z" p-id="1918"></path></svg>