<?xml version="1.0" standalone="no"?><!DOCTYPE svg PUBLIC "-//W3C//DTD SVG 1.1//EN" "http://www.w3.org/Graphics/SVG/1.1/DTD/svg11.dtd"><svg t="1614320851940" class="icon" viewBox="0 0 1024 1024" version="1.1" xmlns="http://www.w3.org/2000/svg" p-id="1762" xmlns:xlink="http://www.w3.org/1999/xlink" width="200" height="200"><defs><style type="text/css"></style></defs><path d="M511.37333984 408.49296875c-79.40126953 0-144 64.59785156-144 144s64.59873047 144 144 144 144-64.59873047 144-144-64.60136719-144-144-144z" p-id="1763"></path><path d="M854.78486328 302.29296875H684.9546875l-26.37333984-102.54638672c-3.61494141-16.20703125-18.2953125-27.92109375-35.09648438-27.92109375H399.25126953c-16.58496094 0-30.95595703 11.22451172-34.90136719 27.15117188l-26.55351562 103.31542968h-169.83105469c-38.92236328 0-70.58847656 30.11484375-70.58847656 67.12646485V782.36035156c0 37.01513672 31.66611328 67.12910156 70.58935547 67.12910156h686.81865234c38.92324219 0 70.58847656-30.11396484 70.58847656-67.12910156V369.41855469c0-37.01162109-31.66523437-67.12558594-70.58847656-67.12558594zM261.31396484 418.90009766h-65.87666015c-14.53271484 0-26.31533203-11.78261719-26.31533203-26.31181641 0-14.53359375 11.77910156-26.31269531 26.31533203-26.31269531h65.87666015c14.53359375 0 26.31621094 11.78261719 26.31621094 26.31269531-0.00351562 14.52919922-11.78261719 26.31181641-26.31621094 26.31181641z m250.059375 313.59287109c-99.25136719 0-180-80.74775391-180-180s80.74863281-180 180-180 180 80.74775391 180 180-80.74775391 180-180 180z" p-id="1764"></path></svg>