<?xml version="1.0" standalone="no"?><!DOCTYPE svg PUBLIC "-//W3C//DTD SVG 1.1//EN" "http://www.w3.org/Graphics/SVG/1.1/DTD/svg11.dtd"><svg t="1614309233242" class="icon" viewBox="0 0 1024 1024" version="1.1" xmlns="http://www.w3.org/2000/svg" p-id="6005" xmlns:xlink="http://www.w3.org/1999/xlink" width="200" height="200"><defs><style type="text/css"></style></defs><path d="M404.48 110.592c78.848-11.264 143.36-10.24 215.04 0 49.152 10.24 99.328 18.432 147.456 31.744 35.84 10.24 61.44 33.792 74.752 71.68 20.48 58.368 41.984 116.736 63.488 174.08 4.096 9.216 16.384 23.552 23.552 23.552 47.104-5.12 69.632 20.48 83.968 59.392 3.072 12.288 1.024 23.552 0 31.744-19.456 5.12-38.912 11.264-57.344 15.36 2.048 20.48 7.168 40.96 7.168 61.44 1.024 94.208 1.024 188.416-1.024 283.648 0 16.384-10.24 43.008-16.384 47.104-6.144 11.264-149.504 10.24-160.768 3.072-36.864-24.576-14.336-64.512-26.624-97.28h-485.376c-9.216 34.816-15.36 93.184-26.624 97.28-24.576 9.216-157.696 10.24-164.864 0-10.24-7.168-16.384-35.84-18.432-54.272-3.072-39.936-1.024-79.872-1.024-119.808l3.072-223.232c-14.336-4.096-33.792-9.216-53.248-14.336-1.024-7.168-2.048-15.36 0-25.6 13.312-40.96 33.792-72.704 84.992-65.536 6.144 1.024 17.408-12.288 21.504-21.504 17.408-46.08 36.864-92.16 49.152-140.288 21.504-79.872 78.848-112.64 152.576-126.976 28.672-3.072 56.32-6.144 84.992-11.264z m-222.208 316.416c223.232 46.08 437.248 47.104 656.384 0-18.432-56.32-36.864-107.52-51.2-158.72-12.288-44.032-40.96-66.56-82.944-67.584-104.448-5.12-207.872-8.192-312.32-9.216-33.792 0-68.608 8.192-102.4 15.36-14.336 3.072-31.744 14.336-36.864 25.6-24.576 62.464-46.08 125.952-70.656 194.56z m43.008 241.664c0-1.024 0 1.024 0 0 17.408 0 36.864-1.024 53.248-4.096 12.288-3.072 27.648-13.312 31.744-23.552 3.072-7.168-9.216-26.624-18.432-31.744-40.96-18.432-82.944-35.84-124.928-50.176-21.504-7.168-45.056-6.144-52.224 24.576-10.24 44.032-1.024 68.608 32.768 75.776 25.6 6.144 51.2 6.144 77.824 9.216z m578.56 0c23.552-3.072 51.2-4.096 78.848-10.24 37.888-8.192 29.696-39.936 28.672-66.56-1.024-22.528-15.36-39.936-35.84-33.792-51.2 16.384-102.4 34.816-151.552 58.368-22.528 11.264-14.336 40.96 11.264 46.08 20.48 4.096 41.984 4.096 68.608 6.144z" p-id="6006"></path></svg>
