<?xml version="1.0" standalone="no"?><!DOCTYPE svg PUBLIC "-//W3C//DTD SVG 1.1//EN" "http://www.w3.org/Graphics/SVG/1.1/DTD/svg11.dtd"><svg t="1614320361126" class="icon" viewBox="0 0 1072 1024" version="1.1" xmlns="http://www.w3.org/2000/svg" p-id="1756" xmlns:xlink="http://www.w3.org/1999/xlink" width="209.375" height="200"><defs><style type="text/css"></style></defs><path d="M893.84498193 668.35786106a386.12458328 386.12458328 0 0 1-734.20911721-2.20929511A99.53880002 99.53880002 0 0 1 90.14348174 569.34125823v-10.04225234a100.60327881 100.60327881 0 0 1 57.22075114-92.38871668c23.49886927-119.90448688 101.40665899-239.80897375 206.52895157-293.03290914l-5.58349173-41.57492267 89.35595699 10.64478708 0.18076026 0.4016901c2.22938032-0.60253473 4.51901294-1.00422483 6.76847764-1.60676039l-6.9492379-51.61717419 99.29778581 31.73351577 27.63627731 12.4523921c3.87630945 0.40169009 7.63211179 1.20507028 11.48833603 1.60676037l0.60253554-45.79266824 116.49012068 78.93209976 1.72726748 2.20929511c106.70896775 52.01886428 186.36410934 171.52166189 211.18855683 291.62699341a99.73964548 99.73964548 0 0 1 67.72494589 96.40561761v10.04225234a98.41406809 98.41406809 0 0 1-79.97649335 99.01660283z m-362.0030949 164.89377575a104.76077124 104.76077124 0 0 0 100.42251855-108.65716506c0-3.81605548-0.20084464-7.83295642-0.56236596-11.44816728a294.1375567 294.1375567 0 0 1-199.74038956 0c-0.36152134 3.61521084-0.58245035 7.63211179-0.58245035 11.44816728a104.76077124 104.76077124 0 0 0 100.46268732 108.65716506z m-160.67602937-341.43656342a40.36985239 40.36985239 0 1 0 40.16900776 40.36985322 40.16900775 40.16900775 0 0 0-40.24934528-40.36985322z m301.74958329 0a40.36985239 40.36985239 0 1 0 40.16900776 40.36985322 40.30959924 40.30959924 0 0 0-40.24934529-40.36985322z" p-id="1757"></path></svg>