<?xml version="1.0" standalone="no"?><!DOCTYPE svg PUBLIC "-//W3C//DTD SVG 1.1//EN" "http://www.w3.org/Graphics/SVG/1.1/DTD/svg11.dtd"><svg t="1614320068869" class="icon" viewBox="0 0 1024 1024" version="1.1" xmlns="http://www.w3.org/2000/svg" p-id="1756" xmlns:xlink="http://www.w3.org/1999/xlink" width="200" height="200"><defs><style type="text/css"></style></defs><path d="M965.888 310.528L791.552 136.192a62.7712 62.7712 0 0 0-49.3568-18.2272 58.88 58.88 0 0 0-5.12-0.256h-92.8768l-6.5024 3.6352c-34.4576 19.1488-78.336 29.696-123.6992 29.696-45.312 0-89.2416-10.5472-123.648-29.696l-6.5024-3.584H290.816c-23.7056 0-45.0048 12.9024-56.0128 33.4336L62.464 323.5328c-11.8784 11.8784-18.432 27.6992-18.432 44.544 0 16.8448 6.5536 32.6656 18.432 44.544l125.952 125.952c10.5472 10.5472 24.1664 16.896 38.8608 18.176v304.384c0 35.072 28.5184 63.6416 63.5904 63.6416h446.208c35.072 0 63.5904-28.5696 63.5904-63.6416v-317.3376c14.848-1.1776 28.672-7.5776 39.2704-18.2272l125.952-125.952c24.576-24.576 24.576-64.512 0-89.088z" p-id="1757"></path></svg>