<?xml version="1.0" standalone="no"?><!DOCTYPE svg PUBLIC "-//W3C//DTD SVG 1.1//EN" "http://www.w3.org/Graphics/SVG/1.1/DTD/svg11.dtd"><svg t="1614309217646" class="icon" viewBox="0 0 1024 1024" version="1.1" xmlns="http://www.w3.org/2000/svg" p-id="5745" xmlns:xlink="http://www.w3.org/1999/xlink" width="200" height="200"><defs><style type="text/css"></style></defs><path d="M273.14176 761.644032l73.008128-423.282688-150.002688 87.298048c-14.014464 12.432384-27.24352 1.72544-27.24352 1.72544L92.577792 309.393408c-8.20224-15.746048-0.790528-24.736768-0.790528-24.736768l179.636224-105.027584c21.556224-21.567488 82.67264-26.457088 82.67264-26.457088l51.321856 0c-1.719296 100.004864 105.817088 106.61376 105.817088 106.61376 109.130752 0 107.410432-106.61376 107.410432-106.61376l51.321856 0c59.523072 0 80.959488 26.457088 80.959488 26.457088l179.354624 105.824256c0 0 10.713088 1.311744 0.790528 17.984512-20.891648 34.659328-69.702656 115.871744-75.921408 123.414528-11.245568 12.695552-24.863744 0.796672-24.863744 0.796672L667.71968 336.63488l81.6128 426.590208c-93.254656 32.01024-238.099456 38.62528-238.099456 38.62528C395.4944 801.850368 273.14176 761.644032 273.14176 761.644032L273.14176 761.644032zM273.14176 761.644032" p-id="5746"></path></svg>