<?xml version="1.0" standalone="no"?><!DOCTYPE svg PUBLIC "-//W3C//DTD SVG 1.1//EN" "http://www.w3.org/Graphics/SVG/1.1/DTD/svg11.dtd"><svg t="1614233347040" class="icon" viewBox="0 0 1024 1024" version="1.1" xmlns="http://www.w3.org/2000/svg" p-id="2094" xmlns:xlink="http://www.w3.org/1999/xlink" width="200" height="200"><defs><style type="text/css"></style></defs><path d="M512 85.333333a426.666667 426.666667 0 1 0 0 853.333334A426.666667 426.666667 0 0 0 512 85.333333z"  p-id="2095"></path><path d="M682.666667 349.44A8.021333 8.021333 0 0 0 674.816 341.333333l-65.024 0.341334L512 461.909333 414.293333 341.76 349.184 341.333333A7.936 7.936 0 0 0 341.333333 349.525333a8.533333 8.533333 0 0 0 1.877334 5.290667l128 157.269333-128 157.184A8.533333 8.533333 0 0 0 341.333333 674.56c0 4.437333 3.584 8.106667 7.850667 8.106667l65.109333-0.341334L512 562.090667l97.706667 120.149333 65.024 0.341333c4.266667 0 7.850667-3.584 7.850666-8.106666a8.533333 8.533333 0 0 0-1.877333-5.290667L552.874667 512l128-157.269333A8.277333 8.277333 0 0 0 682.666667 349.44z" fill="#FFFFFF" p-id="2096"></path></svg>
