<?xml version="1.0" standalone="no"?><!DOCTYPE svg PUBLIC "-//W3C//DTD SVG 1.1//EN" "http://www.w3.org/Graphics/SVG/1.1/DTD/svg11.dtd"><svg t="1614320493973" class="icon" viewBox="0 0 1024 1024" version="1.1" xmlns="http://www.w3.org/2000/svg" p-id="2029" xmlns:xlink="http://www.w3.org/1999/xlink" width="200" height="200"><defs><style type="text/css"></style></defs><path d="M713.728 333.312h-402.432c-7.68 0-14.848 3.072-20.48 8.704-5.12 5.632-8.192 13.312-7.68 20.992l34.816 569.856c1.024 14.848 13.312 26.624 28.16 26.624h333.312c14.848 0 27.136-11.776 28.16-26.624L742.4 363.008c0.512-7.68-2.048-15.36-7.68-20.992-6.144-5.632-13.312-8.704-20.992-8.704z m8.192-96.768h-41.984c1.024-2.56 1.536-5.12 1.536-8.192 0-15.36-12.8-28.16-28.16-28.16h-120.32l-20.48-84.48c-1.536-7.168-7.168-12.288-14.336-13.824l-183.296-38.912c-10.24-2.048-19.968 4.096-22.016 14.336-2.048 10.24 4.096 19.968 14.336 22.528l172.032 36.864 15.36 64h-123.904c-15.36 0-28.16 12.8-28.16 28.16 0 3.072 0.512 5.632 1.536 8.192H302.08c-15.36 0-28.16 12.8-28.16 28.16S286.72 293.376 302.08 293.376h419.84c15.36 0 28.16-12.8 28.16-28.16 0-15.872-12.288-28.672-28.16-28.672z" p-id="2030"></path></svg>