<?xml version="1.0" standalone="no"?><!DOCTYPE svg PUBLIC "-//W3C//DTD SVG 1.1//EN" "http://www.w3.org/Graphics/SVG/1.1/DTD/svg11.dtd"><svg t="1614321193976" class="icon" viewBox="0 0 1024 1024" version="1.1" xmlns="http://www.w3.org/2000/svg" p-id="1793" xmlns:xlink="http://www.w3.org/1999/xlink" width="200" height="200"><defs><style type="text/css"></style></defs><path d="M358.5425 657.33875c16.951875 16.9509375 43.7175 16.9509375 59.776875 0L884.9375 190.7215625c16.951875-16.951875 16.951875-43.7175 0-60.669375s-43.7175-16.951875-59.776875 0L358.5425 596.669375c-16.951875 16.951875-16.951875 43.7175 0 60.669375z" fill="#2C2C2C" p-id="1794"></path><path d="M875.121875 447.6725c-23.1965625 0-42.825 18.736875-42.825 42.825v341.7103125h-640.59375v-640.59375h341.709375c23.1975 0 41.9334375-18.736875 42.825-42.8259375 0-23.1975-18.7359375-42.825-41.9325-42.825H148.8771875c-23.1965625 0-42.825 18.7359375-42.825 42.825v726.245625c0 11.5978125 4.460625 22.305 12.4903125 30.3346875 8.0296875 8.0296875 18.7359375 12.4903125 30.3346875 12.4903125h726.245625c11.59875 0 22.305-4.460625 30.3346875-12.4903125 8.0296875-8.0296875 12.4903125-18.736875 12.4903125-30.3346875V490.4984375c0-24.0890625-19.6284375-42.825-42.825-42.825z" fill="#2C2C2C" p-id="1795"></path></svg>