<?xml version="1.0" standalone="no"?><!DOCTYPE svg PUBLIC "-//W3C//DTD SVG 1.1//EN" "http://www.w3.org/Graphics/SVG/1.1/DTD/svg11.dtd"><svg t="1614319284644" class="icon" viewBox="0 0 1024 1024" version="1.1" xmlns="http://www.w3.org/2000/svg" p-id="4354" xmlns:xlink="http://www.w3.org/1999/xlink" width="200" height="200"><defs><style type="text/css"></style></defs><path d="M975.872 325.952L521.056 130.368a21.92 21.92 0 0 0-17.376 0L48.864 325.952c-9.6 4.128-15.936 14.592-15.936 26.24 0 11.712 6.368 22.176 15.936 26.304L503.68 574.08a21.696 21.696 0 0 0 17.376 0l353.6-152.064v155.584c-18.944 10.016-32.096 31.872-32.096 57.28 0 25.344 13.152 47.2 32.096 57.216v54.272h46.592V692.16c18.976-10.048 32.128-31.872 32.128-57.28 0-25.376-13.152-47.232-32.128-57.28v-175.584l54.624-23.488c9.6-4.16 15.936-14.592 15.936-26.272 0-11.68-6.336-22.176-15.936-26.24z m-463.488 287.392a51.2 51.2 0 0 1-20.32-4.224l-283.52-121.92v168.32c0 137.92 206.752 179.328 271.424 179.328h64.8c48.416 0 271.424-41.376 271.424-179.296v-168.384l-283.52 121.92a51.008 51.008 0 0 1-20.288 4.256z" p-id="4355"></path></svg>