<?xml version="1.0" standalone="no"?><!DOCTYPE svg PUBLIC "-//W3C//DTD SVG 1.1//EN" "http://www.w3.org/Graphics/SVG/1.1/DTD/svg11.dtd"><svg t="1614321504222" class="icon" viewBox="0 0 1024 1024" version="1.1" xmlns="http://www.w3.org/2000/svg" p-id="1793" xmlns:xlink="http://www.w3.org/1999/xlink" width="200" height="200"><defs><style type="text/css"></style></defs><path d="M897.70259375 583.09679638c-1.93998427 0-3.75225557-0.38763721-5.63827763-0.56211855l0 142.7053456c0 19.94397802-16.15574619 22.74737695-36.08713302 22.74737696-19.92599033 0-36.087133-2.80339893-36.087133-22.74737694L819.89005097 296.62842237c0-19.93048682 16.16114268-22.72849013 36.08713301-22.72849014 19.93048682 0 36.087133 2.79800332 36.08713302 22.72849014l0 158.4932414c1.88692031-0.1591919 3.69829248-0.5657168 5.63827763-0.56571679 35.50612675 0 64.27851943 28.77778828 64.27851943 64.28301591C961.98111318 554.34239229 933.2087205 583.09679638 897.70259375 583.09679638L897.70259375 583.09679638zM711.62955107 874.27257911c-39.85647715 0-72.1733669-5.58161542-72.17336689-45.45698028L639.45618506 193.05374521c0-39.85647715 32.31688886-45.45698028 72.17336689-45.45698027s72.1733669 5.59960313 72.1733669 45.45698027l0 635.76185362C783.80381709 868.69096367 751.48692822 874.27257911 711.62955107 874.27257911L711.62955107 874.27257911zM423.67538427 583.09679638L423.67538427 438.75456084l179.69366778 0 0 144.34223554L423.67538427 583.09679638 423.67538427 583.09679638zM315.42028086 874.27257911c-39.86187363 0-72.1733669-5.58161542-72.1733669-45.45698028L243.24691484 193.05374521c0-39.85647715 32.31688886-45.45698028 72.1733669-45.45698027 39.87086748 0 70.67318378 5.59960313 70.67318379 45.45698027l0 635.76185362C386.09346465 868.69096367 355.29114834 874.27257911 315.42028086 874.27257911L315.42028086 874.27257911zM171.07264883 747.98829951c-19.93048682 0-36.087133-2.80339893-36.087133-22.74737695L134.98551582 582.53557695c-1.88782031 0.17358223-3.70009161 0.56211855-5.63827764 0.56211855-35.48723994 0-64.27941855-28.7544041-64.27941855-64.25693349 0-35.50612675 28.79217862-64.28301591 64.27941855-64.28301592 1.93908516 0 3.75045732 0.4056249 5.63827764 0.5657168L134.98551582 296.62842237c0-19.93048682 16.15574619-22.72849013 36.08713301-22.72849014 19.94487714 0 34.5869499 2.79800332 34.5869499 22.72849014l0 428.61250108C205.65959873 745.18490058 191.0184251 747.98829951 171.07264883 747.98829951L171.07264883 747.98829951zM171.07264883 747.98829951" p-id="1794"></path></svg>