<?xml version="1.0" standalone="no"?><!DOCTYPE svg PUBLIC "-//W3C//DTD SVG 1.1//EN" "http://www.w3.org/Graphics/SVG/1.1/DTD/svg11.dtd"><svg t="1614068883177" class="icon" viewBox="0 0 1024 1024" version="1.1" xmlns="http://www.w3.org/2000/svg" p-id="2057" xmlns:xlink="http://www.w3.org/1999/xlink" width="64" height="64"><defs><style type="text/css"></style></defs><path d="M333.15971 621.5608625c13.75687312-60.3187425 40.74186938-114.8184225 95.76936281-149.73935625 60.84843-38.62499531 128.04560906-50.79468094 198.94684969-47.09061844 28.57218375 1.5871875 57.6731175 6.34874906 85.71561469 10.05281063-61.3762425-118.5215475-223.28434688-208.99966125-395.24713781-156.61779188-169.84497844 51.85311844-270.90559031 224.87340937-232.809345 402.12651094 38.09530781 176.1937275 198.94684969 275.13840281 343.39401843 267.20152875-4.23281156-4.23281156-6.87843656-6.87843656-8.99437406-10.05281156-85.18780125-89.94936375-114.28873594-195.77153719-86.77498875-315.88120969z m32.80499625-307.94433563c6.87843656 1.5871875 12.16874813 1.5871875 16.93124719 3.17437407 12.69937313 4.23281156 24.86905969 1.588125 37.03874531-1.05749906 5.81999906-1.059375 11.63999812 1.0575 19.57687312 1.58718656-3.174375 5.29124906-4.76249906 8.46562406-7.40812406 13.22812406 6.87937406 6.34874906 13.75781063 12.69843563 22.75312219 20.63437219-12.69937313 0-23.28187219-2.6446875-32.27718375 0.5296875-8.46562406 3.174375-14.81437312 12.16874813-23.28093469 20.10655969-7.40718656-24.86905969-28.57124625-17.99062312-47.09061844-17.99062313 0-1.0575-0.52875-2.1159375-0.52875-3.70312406 7.40718656-6.87843656 14.81437312-13.22812312 22.22249719-19.57780969-3.174375-4.76249906-5.29124906-10.05281156-7.93687406-16.93124812z" p-id="2058"></path><path d="M874.44307906 563.8868075c-75.66374063-67.19717906-166.14185437-96.29811281-275.13934031-99.47342531-14.81531063 1.588125-38.62499531 3.1753125-61.90592906 7.93687406-55.55718 11.64093562-105.82311188 33.86343281-134.92498313 85.71655219-31.21687125 56.6156175-43.38655687 118.5215475-34.39124625 183.07310156 16.93124812 120.108735 104.23498688 215.34934781 223.28528438 243.39278156 113.75904844 26.98405875 234.92622-20.63624719 303.18183656-119.051235 33.86343281-49.20749344 50.79468094-104.23498688 51.32436844-162.96654187 0.52875-57.6731175-30.15937125-102.11904938-71.42999063-138.62810719z m-8.46562406 234.92622c-43.38749438 28.57218375-92.59592531 37.56749531-157.14748031 38.09624531-87.83248875-3.70312406-178.3106025-33.33374531-250.79996813-106.88061187-24.86812219-25.39687219-43.38749438-55.5562425-47.61936843-91.53655031-6.34968656-51.32436844 20.63437219-95.76936281 73.01717812-121.69686 56.6156175-28.04249625 116.93436-31.21687125 178.31154-22.22155969 80.42530219 11.63999812 152.38404281 42.85780687 210.05809781 102.11811281 19.04812219 19.57780969 33.86249531 42.32905687 42.85780688 68.78436563 17.46093563 51.85311844-1.0584375 102.64873687-48.67874344 133.33685812zM704.59622562 124.19373875c-93.12373781 2.645625-204.76684875 58.202805-225.93090843 113.231235 8.46562406-0.5296875 16.93124812-2.116875 25.39687125-2.116875 8.99531156 0 18.51937219 0.52875 26.98499625 2.645625 73.54686562 18.51843469 142.86091969 10.58156156 209.52841125-25.92655875 43.91718187-24.33937219 83.60061469-53.44124344 117.4640475-93.65342625-14.28656062-1.0584375-26.45624625-1.5871875-38.62499532-3.70312406-28.04343375-4.23374906-50.79561844-18.51937219-72.48936562-35.98124532C715.70934875 52.76468469 681.31622844 33.715625 639.51685906 32.129375c-83.07186469-3.1753125-164.02497938 52.91155594-192.06841312 133.33592062-6.34968656 17.99062312-9.52499906 37.03874531-14.28656063 55.02843001 1.0584375 0.52875 2.645625 1.0584375 3.70406156 1.0584375 73.54686562-76.72217812 159.79216687-117.46311 267.73121625-97.35748688z" p-id="2059"></path><path d="M675.49622938 698.81085312c-3.1753125 1.0584375-5.29124906 6.87843656-5.81999907 11.11124813-4.23374906 25.39687219-7.40812406 51.32436844-11.64093656 76.72217812-2.116875 12.16874813 2.645625 19.04812219 13.75687313 21.16405969 15.87374813 2.645625 32.27624625 4.76249906 48.14999437 5.29124907 13.75593562 0.52875 28.04249625-1.5871875 41.79936938-2.64562407 0.52875-2.116875 1.5871875-3.70312406 2.116875-5.82-24.86905969-34.39218281-50.26593094-68.25561656-75.66374063-102.11904937-2.1159375-3.174375-8.99531156-5.29124906-12.69843562-3.70312407z m-25.39687219-5.81999999c-6.87937406-1.0584375-15.34499813-1.5871875-21.16499719 1.0584375-21.16499719 11.11124812-41.27155687 23.80968469-61.90686656 35.97937031-11.11124812 6.34968656-21.69374719 13.22812312-33.33374625 20.10656062 1.5871875 3.174375 2.1159375 5.29124906 3.174375 6.34874906 25.39687219 19.57780969 53.96999344 32.27624625 85.18780125 39.15468282 10.05281156 2.116875 13.22812312-5.29124906 14.81437312-13.22812407 4.76249906-24.33843469 10.05374906-48.67780594 14.28656063-73.01717812 1.0584375-5.81999906 0.52875-16.40249813-1.0584375-16.40249813z m38.62499531-61.90592907c5.29031156 2.1159375 13.22812312 2.1159375 18.51843563-0.5296875 25.92655875-14.28562312 51.32436844-29.63062125 76.72123968-44.97468187 6.87843656-4.23281156 13.22812312-8.46562406 20.10655969-12.69843563-11.11124812-16.93124812-73.54686562-48.14999344-91.00780031-44.44593187-4.23281156 1.059375-10.05281156 7.40812406-11.11124906 12.16968562-5.81999906 24.86905969-10.58249906 50.26593094-15.34406063 75.66374063-1.0584375 4.76249906-0.52875 13.75687312 2.1159375 14.81531062z m-25.92749625-6.34968656c2.645625-0.52875 4.76249906-7.40718656 5.29124906-11.64093656 3.70406156-24.33843469 6.87843656-49.20749344 10.58249813-73.54686563 2.645625-15.87281062 0-22.22249719-15.87374719-24.33843375-25.39687219-2.645625-51.32343094-2.645625-77.24999062-3.1753125-3.174375 0-6.87843656 2.645625-13.22812313 5.29124907 26.45624625 35.98030781 50.79468094 69.84374156 76.19249063 103.17748687 2.645625 3.174375 10.05281156 5.29124906 14.28562312 4.2328125z m-37.03780781 51.32436844v-4.23375c-4.23281156-1.5871875-8.46562406-4.23281156-12.69843656-4.23281156-48.14999344-1.0575-96.82780031-1.0575-144.97685625-1.5871875-10.05374906 0-13.75687312 5.81999906-7.93687407 13.75687312 9.52406156 13.75687312 19.04812219 27.51374625 30.15937125 40.21312031 14.28656062 15.87281062 24.86812219 16.40249813 43.38749438 6.34874906 17.99062312-9.52406156 35.97937031-19.57687219 54.49874344-29.10093375 12.16874813-6.87843656 24.86812219-13.75687312 37.56655781-21.16405968z m86.24623875-24.86905969c5.29031156 1.5871875 10.05281156 3.70406156 15.34406062 4.2328125 11.63999812 0.5296875 22.75124719 0.5296875 34.39218282 0.5296875 34.39218281 0.52875 68.78436656 1.5871875 103.17748687 1.58718656 16.40249813 0 19.57687219-4.76249906 10.58156156-18.51937218-9.52406156-13.75687312-20.10562219-26.98405875-31.21780875-39.15374532-7.40718656-8.46562406-18.51843469-13.75687312-29.62968375-7.93687406-34.39218281 17.99062312-68.25561656 36.50905781-102.11904937 54.49874344 0 1.5871875-0.52875 3.174375-0.52875 4.76249906zM490.30625281 569.17805656c41.80030687 20.10655969 83.59967719 39.68437031 125.39998407 59.7899925 5.29124906 2.645625 11.11124812 2.645625 16.40249812 4.2328125l1.5871875-3.174375-7.93687406-11.11124812-49.20749438-63.494055c-30.68812125-39.68343281-39.15374531-40.74186938-82.54123968-14.81531063-2.116875 1.059375-4.23281156 2.645625-5.81999907 3.7040625-14.81531063 11.11124812-14.81531063 16.93124812 2.1159375 24.86812125z m229.10622094 123.81279656c-4.23281156-2.116875-9.52406156-1.5871875-18.51937312-2.64562406 28.04343375 35.45062031 52.38280594 67.19717906 77.77967812 98.41498782 4.23281156 5.29124906 12.69937313 10.58249906 19.04812219 10.05281062 26.45624625-0.52875 46.03311937-14.81437312 65.60999156-33.33374531-5.81999906-4.23281156-8.99437406-8.46562406-13.75687312-10.58249906l-130.16248313-61.90593z m-114.81748594-40.74186937c4.23281156 0 7.93687406-0.52875 12.16874906-0.52875 0.5296875-1.5871875 0.5296875-2.645625 1.059375-4.23281156-4.23374906-2.116875-8.46562406-4.76249906-13.22812406-6.87843656-37.56749531-16.93124812-74.60530313-33.86343281-112.17186-50.26593188-35.98030781-16.40249813-46.56186938-9.52499906-48.14999437 30.68812125-0.52875 17.99062312 5.82093656 25.39687219 24.33937218 25.92655969 45.50436937 2.116875 90.47811375 3.70312406 135.98248219 5.29124906z m262.43996719 23.81062219c-45.50343187-2.116875-91.00780125-3.1753125-135.98248312-4.7625-3.70312406 0-6.87843656 0.52875-10.58156063 1.0584375-0.5296875 1.0584375-0.5296875 2.1159375-1.059375 3.703125 4.23374906 2.645625 8.46656156 5.29124906 12.69937313 7.40812406 38.09624531 17.46093563 76.72124062 34.39218281 115.34717343 51.32436844 33.33374531 14.81437312 42.85780687 8.99437406 46.03218094-28.04343375 1.588125-22.22249719-5.29031156-30.15937125-26.45530875-30.68812125z" p-id="2060"></path></svg>