<?xml version="1.0" standalone="no"?><!DOCTYPE svg PUBLIC "-//W3C//DTD SVG 1.1//EN" "http://www.w3.org/Graphics/SVG/1.1/DTD/svg11.dtd"><svg t="1614322287573" class="icon" viewBox="0 0 1025 1024" version="1.1" xmlns="http://www.w3.org/2000/svg" p-id="2075" xmlns:xlink="http://www.w3.org/1999/xlink" width="200.1953125" height="200"><defs><style type="text/css"></style></defs><path d="M957.5 606.5c-29.25-254.25-81-436.5-245.25-436.5-83.25 0-126 81-200.25 87.75C435.5 251 395 170 311.75 170c-164.25 0-216 182.25-243 434.25-15.75 135-2.25 247.5 81 247.5 117 0 121.5-96.75 204.75-146.25 31.5-15.75 101.25-22.5 159.75-24.75 58.5 2.25 128.25 9 159.75 24.75 83.25 49.5 87.75 146.25 204.75 146.25 81 2.25 92.25-110.25 78.75-245.25z m-643.5-22.5c-65.25 0-117-54-117-117s51.75-117 117-117 117 51.75 117 117-54 117-117 117z m524.25-94.5H746v92.25h-45V489.5h-92.25V444.5H701V354.5h45v90h92.25v45z" p-id="2076"></path><path d="M246.5 467c0 18 6.75 33.75 20.25 47.25C278 525.5 296 534.5 314 534.5s33.75-6.75 47.25-20.25C372.5 503 381.5 485 381.5 467s-6.75-33.75-20.25-47.25C350 408.5 332 399.5 314 399.5s-33.75 6.75-47.25 20.25C253.25 431 246.5 449 246.5 467z" p-id="2077"></path></svg>