<?xml version="1.0" standalone="no"?><!DOCTYPE svg PUBLIC "-//W3C//DTD SVG 1.1//EN" "http://www.w3.org/Graphics/SVG/1.1/DTD/svg11.dtd"><svg t="1614068916970" class="icon" viewBox="0 0 1024 1024" version="1.1" xmlns="http://www.w3.org/2000/svg" p-id="2199" xmlns:xlink="http://www.w3.org/1999/xlink" width="64" height="64"><defs><style type="text/css"></style></defs><path d="M833.024 280.576H669.696V176.128c0-28.672-24.576-52.224-54.272-52.224h-217.6c-29.696 0-54.272 23.552-54.272 52.224v104.448H180.736c-59.904 0-109.056 47.104-109.056 104.448v417.792c0 57.344 49.152 104.448 109.056 104.448h652.8c59.904 0 109.056-47.104 109.056-104.448V385.024c-0.512-57.344-49.664-104.448-109.568-104.448m-435.2-104.448h217.6v104.448h-217.6V176.128zM724.48 646.144H561.152v156.672H452.608V646.144H289.28V541.696h163.328V385.024h109.056v156.672h163.328v104.448h-0.512z" p-id="2200"></path></svg>