<?xml version="1.0" standalone="no"?><!DOCTYPE svg PUBLIC "-//W3C//DTD SVG 1.1//EN" "http://www.w3.org/Graphics/SVG/1.1/DTD/svg11.dtd"><svg t="1614309224926" class="icon" viewBox="0 0 1024 1024" version="1.1" xmlns="http://www.w3.org/2000/svg" p-id="5875" xmlns:xlink="http://www.w3.org/1999/xlink" width="200" height="200"><defs><style type="text/css"></style></defs><path d="M913.408 524.288c0 22.528-16.384 38.912-38.912 38.912-10.24 0-18.432-4.096-26.624-10.24L503.808 200.704 159.744 552.96c-6.144 6.144-16.384 12.288-26.624 12.288-20.48 0-38.912-18.432-38.912-38.912 0-10.24 4.096-20.48 12.288-28.672l368.64-378.88c6.144-8.192 16.384-12.288 28.672-12.288h4.096c10.24 2.048 18.432 6.144 24.576 12.288l155.648 151.552v-40.96c0-22.528 20.48-40.96 40.96-40.96s40.96 18.432 40.96 40.96v122.88l133.12 147.456c6.144 6.144 10.24 14.336 10.24 24.576z m-81.92 73.728v266.24c0 22.528-20.48 40.96-40.96 40.96h-81.92v-307.2h-143.36v307.2h-348.16c-20.48 0-40.96-18.432-40.96-40.96v-266.24l327.68-348.16 327.68 348.16z m-389.12 0h-143.36v143.36h143.36v-143.36z" p-id="5876"></path></svg>