<?xml version="1.0" standalone="no"?><!DOCTYPE svg PUBLIC "-//W3C//DTD SVG 1.1//EN" "http://www.w3.org/Graphics/SVG/1.1/DTD/svg11.dtd"><svg t="1614320446926" class="icon" viewBox="0 0 1024 1024" version="1.1" xmlns="http://www.w3.org/2000/svg" p-id="1761" xmlns:xlink="http://www.w3.org/1999/xlink" width="200" height="200"><defs><style type="text/css"></style></defs><path d="M673.94673778 412.96782222c-140.39267555 0-253.40586667 113.59573333-253.40586667 253.40586667s113.59573333 253.40586667 253.40586667 253.40586666 253.40586667-113.59573333 253.40586667-253.40586666S814.33941333 412.96782222 673.94673778 412.96782222zM408.30748445 94.89976889c-172.43249778 0-312.24263111 69.32252445-312.24263112 154.95623111 0 85.63370667 139.81013333 154.95623111 312.24263112 154.95623111s312.24263111-69.32252445 312.2426311-154.95623111-139.81013333-154.95623111-312.2426311-154.95623111z" p-id="1762"></path><path d="M506.75712 444.42510222c-30.87473778 5.24288-64.07964445 8.15559111-98.44963555 8.15559111-148.54826667 0-272.62976-51.26371555-304.08704-120.58624-5.24288 11.06830222-8.15559111 22.71914667-8.15559112 34.36999112 0 85.63370667 139.81013333 154.95623111 312.24263112 154.9562311 8.15559111 0 16.31118222-0.58254222 25.04931555-0.58254222 19.22389333-30.29219555 44.27320889-55.92405333 73.40032-76.31303111z m205.63740445-42.52558222c5.24288-11.65084445 8.73813333-23.30168889 8.73813333-35.53507555 0-11.65084445-2.91271111-23.30168889-8.15559111-34.36999112-11.06830222 24.46677333-34.36999111 46.60337778-65.82727112 65.24472889 4.66033778 0 8.73813333-0.58254222 13.39847112-0.58254222 17.47626667 0 34.95253333 1.74762667 51.84625778 5.24288z" p-id="1763"></path><path d="M408.30748445 554.52558222c-148.54826667 0-272.62976-51.26371555-304.08704-120.58624-5.24288 11.06830222-8.15559111 22.71914667-8.15559112 34.36999111 0 83.30353778 132.23708445 150.87843555 297.67907556 154.37368889 4.07779555-23.88423111 11.06830222-47.18592 20.97152-68.73998222-1.74762667 0.58254222-4.07779555 0.58254222-6.40796444 0.58254222z" p-id="1764"></path><path d="M390.83121778 655.88792889c-140.39267555-4.07779555-256.31857778-54.17642667-286.61077333-120.00369778-5.24288 11.06830222-8.15559111 22.71914667-8.15559112 34.36999111 0 83.30353778 133.40216889 151.46097778 300.59178667 154.37368889-4.07779555-18.64135111-6.40796445-38.44778667-6.40796445-58.25422222 0-3.49525333 0.58254222-6.99050667 0.58254223-10.48576z" p-id="1765"></path><path d="M104.22044445 637.82912c-5.24288 11.06830222-8.15559111 22.71914667-8.15559112 34.36999111 0 85.63370667 139.81013333 154.95623111 312.24263112 154.95623111 11.65084445 0 23.30168889-0.58254222 34.3699911-1.16508444-15.14609778-20.38897778-27.37948445-43.69066667-36.11761777-67.57489778-147.38318222-0.58254222-270.88213333-51.84625778-302.33941333-120.58624z" p-id="1766"></path><path d="M470.05696 857.44753778c-19.80643555 1.74762667-40.19541333 2.91271111-61.16693333 2.91271111-148.54826667 0-272.62976-51.84625778-304.08704-120.58624-5.24288 11.06830222-8.15559111 22.71914667-8.15559112 34.36999111 0 85.63370667 139.81013333 154.95623111 312.24263112 154.95623111 50.68117333 0 98.44963555-6.40796445 140.97521778-16.89372444-29.70965333-13.39847111-57.08913778-32.03982222-79.80828445-54.75896889z" p-id="1767"></path></svg>