<?xml version="1.0" standalone="no"?><!DOCTYPE svg PUBLIC "-//W3C//DTD SVG 1.1//EN" "http://www.w3.org/Graphics/SVG/1.1/DTD/svg11.dtd"><svg t="1614311505867" class="icon" viewBox="0 0 1024 1024" version="1.1" xmlns="http://www.w3.org/2000/svg" p-id="4224" xmlns:xlink="http://www.w3.org/1999/xlink" width="200" height="200"><defs><style type="text/css"></style></defs><path d="M237.65215 0.109987C106.367535 0.109987 0.019998 106.587509 0.019998 237.772136c0 131.314612 106.457525 237.672148 237.632152 237.672148h237.752139V237.772136C475.414287 106.467523 368.956763 0.109987 237.65215 0.109987z m786.247862 237.662149C1023.900012 106.467523 917.442487 0.109987 786.267859 0.109987c-131.184627 0-237.752138 106.467523-237.752138 237.662149v237.672148h237.752138c131.174628 0 237.632152-106.357536 237.632153-237.672148zM0.019998 786.337851c0 131.314612 106.457525 237.662149 237.632152 237.662149 131.304613 0 237.642151-106.347537 237.642151-237.662149V548.675702H237.65215C106.477522 548.675702 0.019998 655.023239 0.019998 786.337851z m786.127875-237.662149H548.395735v237.662149c0 131.314612 106.457525 237.662149 237.752138 237.662149s237.632152-106.467523 237.632153-237.662149c0.119986-131.314612-106.337539-237.662149-237.632153-237.662149z" p-id="4225"></path></svg>
