<?xml version="1.0" standalone="no"?><!DOCTYPE svg PUBLIC "-//W3C//DTD SVG 1.1//EN" "http://www.w3.org/Graphics/SVG/1.1/DTD/svg11.dtd"><svg t="1614320186984" class="icon" viewBox="0 0 1024 1024" version="1.1" xmlns="http://www.w3.org/2000/svg" p-id="1886" xmlns:xlink="http://www.w3.org/1999/xlink" width="200" height="200"><defs><style type="text/css"></style></defs><path d="M421.19590747 487.47626699L190.54025639 487.47626699c-36.45419773 0-66.2803595-29.82616178-66.2803595-66.28035952L124.25989689 190.54025639c0-36.45419773 29.82616178-66.2803595 66.2803595-66.2803595l230.65565108 0c36.45419773 0 66.2803595 29.82616178 66.28035952 66.2803595l0 230.65565108C487.47626699 457.65010521 457.65010521 487.47626699 421.19590747 487.47626699z" p-id="1887"></path><path d="M833.45974361 487.47626699l-230.65565108 0c-36.45419773 0-66.2803595-29.82616178-66.28035952-66.28035952L536.52373301 190.54025639c0-36.45419773 29.82616178-66.2803595 66.28035952-66.2803595l230.65565108 0c36.45419773 0 66.2803595 29.82616178 66.2803595 66.2803595l0 230.65565108C899.74010311 457.65010521 869.91394133 487.47626699 833.45974361 487.47626699z" p-id="1888"></path><path d="M421.19590747 899.74010311L190.54025639 899.74010311c-36.45419773 0-66.2803595-29.82616178-66.2803595-66.2803595l0-230.65565108c0-36.45419773 29.82616178-66.2803595 66.2803595-66.28035952l230.65565108 0c36.45419773 0 66.2803595 29.82616178 66.28035952 66.28035952l0 230.65565108C487.47626699 869.91394133 457.65010521 899.74010311 421.19590747 899.74010311z" p-id="1889"></path><path d="M833.45974361 536.52373301l-230.65565108 0c-36.45419773 0-66.2803595 29.82616178-66.28035952 66.28035952l0 230.65565108c0 36.45419773 29.82616178 66.2803595 66.28035952 66.2803595l230.65565108 0c36.45419773 0 66.2803595-29.82616178 66.2803595-66.2803595l0-230.65565108C899.74010311 566.34989479 869.91394133 536.52373301 833.45974361 536.52373301zM844.06460112 804.29638542c0 21.87251863-17.89569707 39.7682157-39.7682157 39.7682157l-172.32893472 0c-21.87251863 0-39.7682157-17.89569707-39.76821569-39.7682157l0-172.32893472c0-21.87251863 17.89569707-39.7682157 39.76821569-39.76821569l172.32893472 0c21.87251863 0 39.7682157 17.89569707 39.7682157 39.76821569L844.06460112 804.29638542z" p-id="1890"></path></svg>