<?xml version="1.0" standalone="no"?><!DOCTYPE svg PUBLIC "-//W3C//DTD SVG 1.1//EN" "http://www.w3.org/Graphics/SVG/1.1/DTD/svg11.dtd"><svg t="1614321578567" class="icon" viewBox="0 0 1024 1024" version="1.1" xmlns="http://www.w3.org/2000/svg" p-id="1793" xmlns:xlink="http://www.w3.org/1999/xlink" width="200" height="200"><defs><style type="text/css"></style></defs><path d="M737 962H287a112.5 112.5 0 0 1-112.5-112.5V174.5a112.5 112.5 0 0 1 112.5-112.5h450a112.5 112.5 0 0 1 112.5 112.5v675a112.5 112.5 0 0 1-112.5 112.5z m-225-56.25a56.25 56.25 0 1 0-56.25-56.25 56.25 56.25 0 0 0 56.25 56.25z m225-675a56.25 56.25 0 0 0-56.25-56.25H343.25a56.25 56.25 0 0 0-56.25 56.25v450a56.25 56.25 0 0 0 56.25 56.25h337.5a56.25 56.25 0 0 0 56.25-56.25V230.75z" p-id="1794"></path></svg>