<?xml version="1.0" standalone="no"?><!DOCTYPE svg PUBLIC "-//W3C//DTD SVG 1.1//EN" "http://www.w3.org/Graphics/SVG/1.1/DTD/svg11.dtd"><svg t="1614068823729" class="icon" viewBox="0 0 1024 1024" version="1.1" xmlns="http://www.w3.org/2000/svg" p-id="1777" xmlns:xlink="http://www.w3.org/1999/xlink" width="64" height="64"><defs><style type="text/css"></style></defs><path d="M957.6448 77.824v0.54613333c0 3.82293333-1.09226667 7.64586667-2.18453333 11.4688l-3.2768 6.5536-137.6256 261.05173334-4.9152 9.28426666c-6.00746667 7.64586667-15.29173333 12.56106667-25.66826667 12.56106667-5.46133333 0-10.92266667-1.6384-15.29173333-3.82293333-1.6384-0.54613333-3.2768-1.6384-4.36906667-2.73066667-0.54613333 0-0.54613333-0.54613333-0.54613333-0.54613333-0.54613333-0.54613333-1.6384-1.6384-2.73066667-2.18453334-38.22933333-33.86026667-83.5584-59.52853333-132.16426667-75.91253333-2.73066667-1.09226667-6.00746667-1.6384-9.28426666-2.73066667-0.54613333 0-0.54613333-0.54613333-1.09226667-0.54613333-1.6384-1.09226667-3.82293333-2.18453333-5.46133333-3.2768l-4.9152-4.9152v-0.54613333l-0.54613334-0.54613334-4.36906666-8.192v-0.54613333l-55.7056-102.67306667v-0.54613333l-4.9152-8.73813333c-1.09226667-3.2768-1.6384-7.09973333-1.6384-10.92266667 0-6.00746667 1.6384-11.4688 4.36906666-15.83786667 0.54613333-0.54613333 0.54613333-1.6384 1.6384-2.18453333l37.13706667-65.536v-0.54613333l5.46133333-9.28426667 4.36906667-4.36906667 0.54613333-0.54613333c1.09226667-1.09226667 2.73066667-2.18453333 4.36906667-2.73066667 2.73066667-1.6384 5.46133333-2.73066667 8.73813333-3.2768 1.09226667-0.54613333 2.18453333-0.54613333 3.2768-0.54613333h320.03413334c0.54613333 0 1.6384 0 2.18453333 0.54613333 0.54613333 0 0.54613333 0 1.09226667 0.54613334 3.82293333 1.09226667 7.64586667 2.18453333 10.37653333 4.36906666 0.54613333 0 0.54613333 0.54613333 0.54613333 0.54613334 5.46133333 3.82293333 9.28426667 8.73813333 11.4688 14.7456 0 3.82293333 1.09226667 8.192 1.09226667 12.01493333zM527.83786667 243.84853333v0.54613334c-0.54613333 18.0224-14.7456 32.22186667-32.768 32.22186666h-1.09226667c-84.10453333 3.82293333-164.38613333 36.0448-227.19146667 91.20426667-1.6384 1.6384-3.2768 2.73066667-5.46133333 4.36906667-5.46133333 3.2768-11.4688 5.46133333-18.0224 5.46133333-5.46133333 0-10.92266667-1.6384-15.29173333-3.82293333-1.6384-1.09226667-3.82293333-2.18453333-5.46133334-3.2768-2.18453333-1.6384-4.36906667-3.82293333-5.46133333-6.00746667l-3.82293333-7.09973333v-0.54613334l-139.81013334-259.41333333v-0.54613333l-4.9152-8.73813334c-1.09226667-3.2768-1.6384-7.09973333-1.6384-10.92266666 0-7.64586667 2.73066667-14.7456 7.09973334-20.75306667l4.36906666-4.36906667 0.54613334-0.54613333c3.82293333-2.73066667 8.192-4.9152 12.56106666-6.00746667h324.4032c4.36906667 1.09226667 8.192 2.73066667 11.4688 4.9152 0.54613333 0 0.54613333 0.54613333 0.54613334 0.54613334 3.82293333 2.73066667 6.5536 5.46133333 8.73813333 9.28426666l2.73066667 5.46133334 81.37386666 156.74026666 0.54613334 0.54613334v0.54613333l1.09226666 2.18453333 2.73066667 5.46133334v0.54613333l0.54613333 1.09226667 0.54613334 0.54613333c1.09226667 3.2768 1.6384 6.5536 1.6384 10.37653333zM512 323.03786667c-180.77013333 0-327.68 146.90986667-327.68 327.68s146.90986667 327.68 327.68 327.68 327.68-146.90986667 327.68-327.68c0-181.31626667-146.90986667-327.68-327.68-327.68zM633.78773333 826.02666667L512 761.58293333l-121.78773333 63.8976L413.696 689.49333333l-98.85013333-95.57333333 136.53333333-19.6608L512 450.83306667l61.16693333 123.42613333 136.53333334 19.6608-98.85013334 96.11946667L633.78773333 826.02666667z" p-id="1778"></path></svg>