<?xml version="1.0" standalone="no"?><!DOCTYPE svg PUBLIC "-//W3C//DTD SVG 1.1//EN" "http://www.w3.org/Graphics/SVG/1.1/DTD/svg11.dtd"><svg t="1614321922099" class="icon" viewBox="0 0 1024 1024" version="1.1" xmlns="http://www.w3.org/2000/svg" p-id="2014" xmlns:xlink="http://www.w3.org/1999/xlink" width="200" height="200"><defs><style type="text/css"></style></defs><path d="M777.86914063 62h-531.73828125c-67.76367188 0-122.6953125 54.93164063-122.6953125 122.6953125v2.90039063L512 291.74609375l388.65234375-104.15039063V184.78320312c0-67.8515625-55.01953125-122.78320313-122.78320313-122.78320312z" p-id="2015"></path><path d="M512 359.0703125L353.97265625 315.4765625l-230.53710938-63.6328125v583.76953125c0 69.78515625 54.93164063 126.38671875 122.69531251 126.38671875h531.82617187c67.76367188 0 122.6953125-56.6015625 122.6953125-126.38671875V251.84375l-230.53710938 63.6328125L512 359.0703125zM623.53320313 580.29101563c20.7421875 0 37.52929688 16.69921875 37.52929687 37.52929687 0 20.7421875-16.69921875 37.52929688-37.52929688 37.52929687h-74.79492187v37.70507813h74.79492187c20.7421875 0 37.52929688 16.69921875 37.52929688 37.52929687 0 20.7421875-16.69921875 37.52929688-37.52929688 37.52929688h-74.79492187v75.41015625c0 20.7421875-16.69921875 37.52929688-37.52929688 37.52929688-20.7421875 0-37.52929688-16.69921875-37.52929687-37.52929688v-75.41015625H398.4453125c-20.7421875 0-37.52929688-16.69921875-37.52929688-37.52929688 0-20.7421875 16.69921875-37.52929688 37.52929688-37.52929687h75.234375v-37.52929688H398.4453125c-20.7421875 0-37.52929688-16.69921875-37.52929688-37.52929687 0-20.7421875 16.69921875-37.52929688 37.52929688-37.52929688H458.38671875L371.63867187 494.15820312c-14.50195313-14.67773438-14.67773438-38.14453125 1e-8-52.82226562 14.50195313-14.67773438 38.3203125-14.67773438 52.99804687 0l85.86914063 85.69335938L599.890625 440.80859375c14.94140625-14.32617188 38.75976563-14.15039063 52.99804688 0.79101563 14.32617188 14.67773438 13.88671875 38.49609375-0.96679688 52.82226562L562.80078125 580.29101563h60.73242188z" p-id="2016"></path></svg>