<?xml version="1.0" standalone="no"?><!DOCTYPE svg PUBLIC "-//W3C//DTD SVG 1.1//EN" "http://www.w3.org/Graphics/SVG/1.1/DTD/svg11.dtd"><svg t="1614322003651" class="icon" viewBox="0 0 1024 1024" version="1.1" xmlns="http://www.w3.org/2000/svg" p-id="2145" xmlns:xlink="http://www.w3.org/1999/xlink" width="200" height="200"><defs><style type="text/css"></style></defs><path d="M849.5 160.4375H174.5c-31.06582031 0-56.25 25.18417969-56.25 56.25v14.0484375h0.12832031v0.06416016l74.75625 37.38691406c15.49863281 7.75019531 15.49863281 29.86787109 0 37.61806641L135.61279297 323.37792969c-8.77587891 2.68066406-15.08291016 10.67080078-15.09169922 19.84658203 0 0.38056641 0.00966797 0.76113281 0.02900391 1.14169922 0.45527344 8.75830078 6.64716797 16.17802734 15.0336914 18.74003906l57.55078125 17.58076172c15.49863281 7.75019531 15.49863281 29.86787109 0 37.6180664L135.61279297 435.87792969c-8.77587891 2.68066406-15.08291016 10.67080078-15.09169922 19.84658203 0 0.38056641 0.00966797 0.76113281 0.02900391 1.14169922 0.45527344 8.75830078 6.64716797 16.17802734 15.0336914 18.74003906l57.55078125 17.58076172c15.49863281 7.75019531 15.49863281 29.86787109 0 37.6180664L135.61279297 548.37792969c-8.77587891 2.68066406-15.08291016 10.67080078-15.09169922 19.84658203 0 0.38056641 0.00966797 0.76113281 0.02900391 1.14169922 0.45527344 8.75830078 6.64716797 16.17802734 15.0336914 18.74003906l57.55078125 17.58076172c15.49863281 7.75019531 15.49863281 29.86787109 0 37.6180664L135.61279297 660.87792969c-8.77587891 2.68066406-15.08291016 10.67080078-15.09169922 19.84658203 0 0.38056641 0.00966797 0.76113281 0.02900391 1.14169922 0.45527344 8.75830078 6.64716797 16.17802734 15.0336914 18.74003906l57.55078125 17.58076172c15.49863281 7.75019531 15.49863281 29.86787109 0 37.6180664l-74.75625 37.38164063V793.25h-0.0290039c1.98984375 39.16669922 34.37490234 70.3125 74.03642578 70.3125H849.5c31.06582031 0 56.25-25.18417969 56.25-56.25V216.6875c0-31.06582031-25.18417969-56.25-56.25-56.25zM343.25 826.6484375c0 4.85419922-3.93486328 8.7890625-8.7890625 8.7890625h-38.671875c-4.85419922 0-8.7890625-3.93486328-8.7890625-8.7890625v-66.796875c0-4.85419922 3.93486328-8.7890625 8.7890625-8.7890625h38.671875c4.85419922 0 8.7890625 3.93486328 8.7890625 8.7890625v66.796875z m0-112.5c0 4.85419922-3.93486328 8.7890625-8.7890625 8.7890625h-38.671875c-4.85419922 0-8.7890625-3.93486328-8.7890625-8.7890625v-66.796875c0-4.85419922 3.93486328-8.7890625 8.7890625-8.7890625h38.671875c4.85419922 0 8.7890625 3.93486328 8.7890625 8.7890625v66.796875z m0-112.5c0 4.85419922-3.93486328 8.7890625-8.7890625 8.7890625h-38.671875c-4.85419922 0-8.7890625-3.93486328-8.7890625-8.7890625v-66.796875c0-4.85419922 3.93486328-8.7890625 8.7890625-8.7890625h38.671875c4.85419922 0 8.7890625 3.93486328 8.7890625 8.7890625v66.796875z m0-112.5c0 4.85419922-3.93486328 8.7890625-8.7890625 8.7890625h-38.671875c-4.85419922 0-8.7890625-3.93486328-8.7890625-8.7890625v-66.796875c0-4.85419922 3.93486328-8.7890625 8.7890625-8.7890625h38.671875c4.85419922 0 8.7890625 3.93486328 8.7890625 8.7890625v66.796875z m0-112.5c0 4.85419922-3.93486328 8.7890625-8.7890625 8.7890625h-38.671875c-4.85419922 0-8.7890625-3.93486328-8.7890625-8.7890625v-66.796875c0-4.85419922 3.93486328-8.7890625 8.7890625-8.7890625h38.671875c4.85419922 0 8.7890625 3.93486328 8.7890625 8.7890625v66.796875z m0-112.5c0 4.85419922-3.93486328 8.7890625-8.7890625 8.7890625h-38.671875c-4.85419922 0-8.7890625-3.93486328-8.7890625-8.7890625v-66.796875c0-4.85419922 3.93486328-8.7890625 8.7890625-8.7890625h38.671875c4.85419922 0 8.7890625 3.93486328 8.7890625 8.7890625v66.796875z m387.27597656 230.93789063v42.48632812h-71.45419922v36.69257813h71.45419922v42.48632812h-71.45419922v61.58320313h-67.59140625v-61.58320313h-73.8140625v-42.48632812h73.8140625v-36.69257813h-73.8140625v-42.48632812h60.5109375l-79.82226562-149.13105469h71.23974609l58.36464844 133.68164062h0.85869141c1.85712891-5.00537109 4.79091797-12.23085938 8.79785156-21.67207031l48.28007812-112.00869141h67.59140625l-82.18300781 149.13105469h59.22158203z" p-id="2146"></path></svg>