<?xml version="1.0" standalone="no"?><!DOCTYPE svg PUBLIC "-//W3C//DTD SVG 1.1//EN" "http://www.w3.org/Graphics/SVG/1.1/DTD/svg11.dtd"><svg t="1614309211616" class="icon" viewBox="0 0 1024 1024" version="1.1" xmlns="http://www.w3.org/2000/svg" p-id="5615" xmlns:xlink="http://www.w3.org/1999/xlink" width="200" height="200"><defs><style type="text/css"></style></defs><path d="M761.774205 178.681542c-1.003863-1.774413-2.415003-3.281743-4.118807-4.406356 0 0-140.071176-56.874335-140.071176-58.389852L617.584222 73.568553c0-7.04137-5.695722-12.755512-12.748349-12.755512L414.886707 60.813041c-7.051603 0-12.756535 5.714142-12.756535 12.755512l0 42.317805c0 2.345418-135.885853 58.389852-135.885853 58.389852-1.705851 1.124614-3.114944 2.63092-4.120854 4.406356l-79.666434 115.771747 658.982586 0L761.774205 178.681542zM925.272953 328.181461c-2.737344-3.134387-6.700609-4.935406-10.857279-4.935406L109.481995 323.246055c-4.15667 0-8.119935 1.802042-10.856255 4.935406-2.727111 3.134387-3.971451 7.299243-3.41068 11.418051l26.728758 177.776939c0.249687 1.802042 0.829901 3.538593 1.723248 5.118578l79.537498 173.659155c1.134847 2.001587 2.719948 3.705392 4.644787 4.969175l131.499963 80.521918 345.20109 0 131.499963-80.521918c1.926886-1.263783 3.510964-2.967588 4.634554-4.969175l79.547731-173.659155c0.893346-1.579985 1.474584-3.317559 1.723248-5.118578l26.727735-177.776939C929.244404 335.480704 928.001087 331.315848 925.272953 328.181461zM358.370529 847.341534c0 7.943926 6.442736 14.395872 14.395872 14.395872l283.08231 0c7.963369 0 14.395872-6.452969 14.395872-14.395872l0-36.893258L358.370529 810.448276 358.370529 847.341534z" p-id="5616"></path></svg>