<?xml version="1.0" standalone="no"?><!DOCTYPE svg PUBLIC "-//W3C//DTD SVG 1.1//EN" "http://www.w3.org/Graphics/SVG/1.1/DTD/svg11.dtd"><svg t="1614311152609" class="icon" viewBox="0 0 1024 1024" version="1.1" xmlns="http://www.w3.org/2000/svg" p-id="6135" xmlns:xlink="http://www.w3.org/1999/xlink" width="200" height="200"><defs><style type="text/css"></style></defs><path d="M932.53973333 613.71733333c-32.8704-117.85898667-103.32956445-208.93696-213.39022222-270.79338666-9.50385778-5.35665778-19.38659555-10.04999111-29.27047111-14.78769778-46.38037333-11.32885333-107.76462222-21.47100445-179.05208889-21.47100444-71.33752889 0-132.71836445 10.14101333-179.12263111 21.51651555-172.58154667 77.21642667-244.12956445 194.88426667-256.59619555 366.77973333-3.24721778 44.64753778-0.54499555 88.87296 11.18549333 132.62279112 18.32049778 68.94250667 81.50357333 120.58510222 157.34328889 120.44288 178.60266667-0.38001778 357.39306667 0 535.99345778-0.23893334 57.39975111-0.14108445 101.57624889-24.86044445 133.64110222-69.89027556 16.30663111-22.89095111 23.96387555-48.89031111 28.29653333-76.19242666 10.35832889-63.13756445 8.22499555-126.03847111-9.02826667-187.98819556zM631.17425778 774.14058667h-72.47303111c-0.92501333 0-1.61223111 0.78506667-1.61223112 1.56558222v33.36988444h-0.38001777c0.52337778 2.72384 0.92387555 5.56828445 0.92387555 8.41159112 0 23.93884445-20.59377778 43.46538667-45.95484444 43.46538666-25.30759111 0-45.92867555-19.38545778-45.92867556-43.46538666 0-2.98552889 0.42780445-5.68775111 0.94776889-8.41159112h-0.94776889v-33.39377778c0-0.89884445-0.78165333-1.54055111-1.61223111-1.5405511h-71.90300444c-20.24220445 0-36.80597333-15.52384-36.80597333-34.78983112 0-19.29102222 16.44771555-34.81486222 36.8071111-34.81486222h71.90186667c0.94890667 0 1.61223111-0.76003555 1.61223111-1.54055111v-31.45045333c0-0.90112-0.78165333-1.56330667-1.61223111-1.56330667H392.35128889v-0.12060445h-0.11719111c-20.24220445 0-36.80597333-15.52156445-36.80597333-34.81258666 0-19.15107555 16.44771555-34.79096889 36.8071111-34.79096889h65.83637334c0.71111111 0 1.37216-0.38115555 1.51552-1.01944889 0.52224-1.44497778 1.18670222-2.72725333 1.99111111-4.03000889 0.42552889-0.64056889 0.28330667-1.42222222-0.23779555-1.94104889l-81.38410667-76.97863111c-10.23886222-9.57553778-6.87331555-28.46492445 7.39555555-41.92483555 14.29048889-13.46332445 34.22094222-16.68437333 44.34147556-6.96888889l79.32472889 75.15136c0.68721778 0.64056889 1.75217778 0.64056889 2.44167111 0l73.39918222-74.01358223c11.60988445-12.01493333 35.16757333-9.05329778 49.57752889 4.66830223 14.29048889 13.72387555 21.42435555 26.14272 7.30112 41.26151111l-86.2208 83.46965333c-0.42666667 0.37888-0.54613333 0.75662222-0.54613333 1.28113778 0.11946667 0.78165333 0.80554667 1.42222222 1.61109333 1.42222222h72.35470222v0.14108445c20.19555555 0.14108445 36.49991111 15.64444445 36.49991111 34.79210666 0 19.1488-16.30435555 34.67264-36.49991111 34.67264h-72.23409777c-0.92501333 0-1.61223111 0.78165333-1.61223112 1.56444445v31.44931555c0 0.89884445 0.80554667 1.54055111 1.61223112 1.54055112h72.4730311v0.11946666c20.21603555 0.13994667 36.49649778 15.66378667 36.49649778 34.79324444-0.00113778 18.90872889-16.2816 34.31424-36.49763555 34.43143112zM304.35328 283.0848c48.39651555-13.93777778 120.39623111-28.89272889 206.47367111-28.89272889 85.89084445 0 157.696 14.88327111 206.11754667 28.77212444 8.69717333-12.22769778 15.85493333-25.40657778 21.21045333-39.67203555 4.83214222-12.94222222 7.53777778-26.5216 11.32771556-39.84042667 8.60387555-30.92821333 0.26168889-57.56814222-24.67271112-77.99466666-33.67708445-27.58769778-72.07025778-30.81102222-112.47729777-14.64775112-2.82055111 1.16167111-4.71495111 1.94332445-7.41717333-0.64056888-51.99644445-47.23256889-135.51388445-47.75480889-187.91537778-1.01831112-2.41891555 2.18225778-4.16995555 2.70108445-7.41717334 1.28113778-21.28440889-9.43217778-43.51544889-11.37777778-66.26645333-6.87445333-43.25034667 8.55608889-78.94357333 43.86929778-72.61297778 92.14748445 4.26325333 32.41984 15.35544889 61.45024 33.64977778 87.38019555z m0 0" p-id="6136"></path></svg>