<?xml version="1.0" standalone="no"?><!DOCTYPE svg PUBLIC "-//W3C//DTD SVG 1.1//EN" "http://www.w3.org/Graphics/SVG/1.1/DTD/svg11.dtd"><svg t="1614068944047" class="icon" viewBox="0 0 1055 1024" version="1.1" xmlns="http://www.w3.org/2000/svg" p-id="2339" xmlns:xlink="http://www.w3.org/1999/xlink" width="65.9375" height="64"><defs><style type="text/css"></style></defs><path d="M1012.580724 1023.978535l-955.457511 0.021465c-22.865384-0.021465-43.815034-21.035509-43.86333-43.868696v-270.853645c0-43.997485 22.092651-67.018488 45.29074-44.963401l129.212761 101.700248c17.359661 14.864378 43.450132 35.084224 57.971073 17.456252l148.096424-179.81604c14.520941-17.627971 40.718736-42.516413 58.217918-27.802289l127.436549 110.951579c17.493816 14.692659 53.710309 40.353834 67.941475 22.473651l317.088835-382.137928c42.827653-48.89146 90.592211-37.418522 90.592211 22.479017v630.512556c0 22.833187-19.672494 43.868696-42.527145 43.847231z m-371.856287-469.327967a70.200646 70.200646 0 0 1-48.022135 26.621725c-18.990986 2.248438-37.912212-3.831468-52.486815-16.082506l-143.744435-121.061501-144.377647 190.569907a70.30797 70.30797 0 0 1-55.92655 27.823754c-16.098604 0-31.816208-5.570117-44.416048-15.894688l-125.998407-103.09546c-29.997065-24.528906-34.418815-68.757137-9.884543-98.754203 24.518174-30.039995 68.735673-34.429548 98.722006-9.884543l69.653293 56.978326 144.989393-191.407035a70.125519 70.125519 0 0 1 48.12946-27.372993 70.350899 70.350899 0 0 1 52.991238 16.044942l144.5279 121.743009 186.73844-234.223955-52.036055-43.224751c-36.924831-30.662474-28.725276-63.884627 18.228986-73.812099L998.446149 2.366495c46.943529-9.927472 61.46447 13.10963 32.266969 51.215025l-389.988681 501.069048z" p-id="2340"></path></svg>