<?xml version="1.0" standalone="no"?><!DOCTYPE svg PUBLIC "-//W3C//DTD SVG 1.1//EN" "http://www.w3.org/Graphics/SVG/1.1/DTD/svg11.dtd"><svg t="1614320272802" class="icon" viewBox="0 0 1055 1024" version="1.1" xmlns="http://www.w3.org/2000/svg" p-id="1756" xmlns:xlink="http://www.w3.org/1999/xlink" width="206.0546875" height="200"><defs><style type="text/css"></style></defs><path d="M924.46580652 933.85731338l-787.2727294 0.01768662c-18.84049585-0.01768661-36.10247552-17.33272531-36.14227021-36.14669165v-223.17652634c0-36.25281052 18.20378348-55.22153247 37.3184198-37.04870076l106.46803428 83.79842211c14.30391989 12.24787006 35.80180554 28.90850977 47.76669223 14.38350842l122.02769312-148.16385131c11.96488669-14.52500051 33.55120459-35.0324448 47.97008623-22.90838022l105.00448069 91.42128396c14.41446021 12.10637796 44.25593088 33.2505346 55.98205032 18.5177178l261.27314895-314.87194995c35.28889866-40.28532166 74.64568167-30.83191205 74.64568168 18.52213925v519.52633704c0 18.81396634-16.20963556 36.14669165-35.04128769 36.12900504z m-306.40013882-386.71432827a57.84354987 57.84354987 0 0 1-39.56901994 21.93562546c-15.64809026 1.85265583-31.23870008-3.15703235-43.24780288-13.2515766l-118.44176468-99.751603-118.96351529 157.02476468a57.93198211 57.93198211 0 0 1-46.08205719 22.92606683c-13.26484094 0-26.21574756-4.58963498-36.5976958-13.09681934l-103.81948819-84.94804138c-24.71681992-20.21119573-28.36022964-56.6541351-8.14461246-81.37095584 20.20235284-24.75219314 56.63644931-28.36907336 81.34442633-8.14461245l57.3925449 46.94869391 119.46757846-157.7145369a57.78164712 57.78164712 0 0 1 39.657453-22.55465122 57.96735452 57.96735452 0 0 1 43.66343462 13.22062482l119.08731995 100.31314829 153.86773315-192.99459184-42.87638808-35.61609731c-30.42512319-25.26510004-23.66889807-52.63931058 15.02022161-60.81929544L912.81927561 92.07493179c38.68027598-8.17998487 50.64516265 10.80200226 26.58716317 42.19988022l-321.34077108 412.8681731z" p-id="1757"></path></svg>