<?xml version="1.0" standalone="no"?><!DOCTYPE svg PUBLIC "-//W3C//DTD SVG 1.1//EN" "http://www.w3.org/Graphics/SVG/1.1/DTD/svg11.dtd"><svg t="1614322281763" class="icon" viewBox="0 0 1241 1024" version="1.1" xmlns="http://www.w3.org/2000/svg" p-id="1945" xmlns:xlink="http://www.w3.org/1999/xlink" width="242.3828125" height="200"><defs><style type="text/css"></style></defs><path d="M1086.68084187 488.87709313a38.39963344 38.39963344 0 0 0 4.79995407-18.3270975 40.14507094 40.14507094 0 0 0-74.61747-20.94525469 268.79743406 268.79743406 0 0 0-94.690005-16.58166 359.56020375 359.56020375 0 0 0-213.37978125 76.3629075l16.14530062 35.78147718h11.78170594a52.79949562 52.79949562 0 0 1 25.30884937 6.54539157 54.98129344 54.98129344 0 0 1 25.30884844 32.29060125l5.67267375 17.89073813 18.32709749-4.79995407a63.70848279 63.70848279 0 0 1 15.70894127 0 51.05405813 51.05405813 0 0 1 25.30884937 6.10903219 55.41765281 55.41765281 0 0 1 25.30884937 32.29060125l5.67267281 17.89073812 18.3270975-4.79995406a50.1813394 50.1813394 0 0 1 12.21806532 0 54.54493406 54.54493406 0 0 1 16.14530062 2.61815625l-133.9623572 239.99770969a819.04672687 819.04672687 0 0 0-153.16217437-19.63617657 802.46506781 802.46506781 0 0 0-105.59899218 7.41811125L465.304955 387.20533623a65.89027969 65.89027969 0 0 1 34.03603875 14.83622252l15.70894031 12.65442468 13.090785-15.70894124a94.25364563 94.25364563 0 0 1 59.7812475-35.34511687h11.781705a98.61724031 98.61724031 0 0 1 56.2903725 17.45437874l15.70894031 10.90898719 11.78170594-14.39986313a94.25364563 94.25364563 0 0 1 60.21760688-35.34511687h11.78170592a102.10811625 102.10811625 0 0 1 65.8902797 26.6179275l30.98152313-25.30884938c-91.63548935-157.52576907-241.30678781-261.81568313-403.63251094-261.81568218a49.30862062 49.30862062 0 0 0 0-6.5453925A50.1813394 50.1813394 0 0 0 398.10559625 32.0087272h-6.98175187a50.1813394 50.1813394 0 0 0-43.63594688 49.30862061 43.63594687 43.63594687 0 0 0 0 6.98175094 38.83599281 38.83599281 0 0 0 0 6.10903312c-151.85309625 41.01779063-267.48835594 174.54378844-315.4878975 344.72398219l34.47239811 18.76345688a92.50820812 92.50820812 0 0 1 55.8540122-30.54516282h11.78170594a98.61724031 98.61724031 0 0 1 55.85401219 18.76345688l16.58166 10.03626844 11.78170593-14.39986314a94.25364563 94.25364563 0 0 1 60.21760688-35.34511686h11.78170594A99.05359969 99.05359969 0 0 1 345.30610063 424.73225094l15.70894032 10.90898718 11.78170593-14.39986312A87.27189469 87.27189469 0 0 1 424.72352375 389.82349344l72.87203156 495.70435968a879.26433469 879.26433469 0 0 0-218.17973531 68.50843689 20.07253594 20.07253594 0 0 0-10.47262687 22.69069218 20.50889531 20.50889531 0 0 0 19.63617562 15.27258187h707.3387025a20.07253594 20.07253594 0 0 0 19.63617656-15.27258187 20.07253594 20.07253594 0 0 0-10.47262687-22.69069218 845.66465531 845.66465531 0 0 0-167.12567813-58.03581002l125.67152813-225.59784655a48.43590095 48.43590095 0 0 1 4.36359469 10.47262687l4.79995406 19.63617656 19.63617656-4.79995406a65.89027969 65.89027969 0 0 1 16.14529969 0 51.05405813 51.05405813 0 0 1 25.30884937 6.10903219 55.41765281 55.41765281 0 0 1 25.30884938 32.29060126l5.67267375 17.89073811 18.3270975-4.36359468a65.89027969 65.89027969 0 0 1 15.70894125 0 52.36313625 52.36313625 0 0 1 25.30884936 6.10903312 57.16309031 57.16309031 0 0 1 27.05428687 39.70871156h40.14507095a421.95960844 421.95960844 0 0 0 3.49087594-52.79949656 307.63342687 307.63342687 0 0 0-108.65350781-246.10674093z" p-id="1946"></path></svg>