<?xml version="1.0" standalone="no"?><!DOCTYPE svg PUBLIC "-//W3C//DTD SVG 1.1//EN" "http://www.w3.org/Graphics/SVG/1.1/DTD/svg11.dtd"><svg t="1614055383958" class="icon" viewBox="0 0 1024 1024" version="1.1" xmlns="http://www.w3.org/2000/svg" p-id="1777" xmlns:xlink="http://www.w3.org/1999/xlink" width="64" height="64"><defs><style type="text/css"></style></defs><path d="M365.61708146 397.08873501L366.61841693 396.44837319 365.61708146 397.08873501Z" p-id="1778"></path><path d="M712.64478322 211.79583488c-5.69480078 2.12483869-10.87496192 4.22755555-15.06543047 6.15446414 78.49416704 51.58874909 90.58237326 124.56909141 90.58237326 162.10596409 0 14.6689536-1.70925511 23.87736349-1.77445888 24.21617323l-5.09982151 25.76119239-16.7339338-20.24476217c-44.33235058-53.64722347-92.88777273-76.55240021-119.90634609-85.95291819 8.23073906 27.73583645 11.65739918 52.80194446 11.65739918 74.88047218 0 77.63635883-39.85428821 119.74891065-42.13872868 122.09612914l-19.54116494 20.0596389-1.82685355-27.94773846c-5.35015538-81.98500011-58.72129821-144.56353109-79.45474958-165.95395925-20.8918016 21.35317163-74.81251499 83.95033031-80.16267037 165.95395925l-1.81986758 27.94773846-19.54465792-20.0596389c-2.29957746-2.34721849-42.14571463-44.45977031-42.14571464-122.09612914 0-22.07852658 3.42549618-47.14463573 11.65623524-74.88047218-27.02555933 9.40051797-75.57399552 32.30569472-119.914496 85.95291819l-16.72461881 20.24476217-5.1091365-25.76119239c-0.06520263-0.33997369-1.77329379-9.54838357-1.77329379-24.21151517 0-37.54036565 12.08704227-110.52187193 90.58935922-162.11062215-4.19163363-1.92690859-9.38110976-4.02962546-15.07940352-6.15446414C182.25987698 274.69221774 93.07937223 397.47295232 93.07937223 538.32704c0 204.72265614 188.36038542 371.27972067 419.90042169 371.27972067 231.53072128 0 419.9062437-166.55706453 419.9062437-371.27972067C932.88603762 397.47993827 843.70320498 274.69221774 712.64478322 211.79583488z" p-id="1779"></path><path d="M376.70046037 218.45094514l-17.78766392 9.52044089c-80.37807331 43.03933099-94.92420722 107.51799069-96.25738013 143.93714005 65.64797326-66.26818162 132.79096263-78.32562119 135.90441529-78.82626845l21.24459804-3.39974144-7.61014386 20.11785444c-12.86016569 34.01837341-17.57109703 63.71837497-17.57109702 88.9707702 0 35.55291363 9.31707107 61.99638243 18.36284928 79.56559531 19.45616725-93.64890851 88.93599289-155.28785237 92.2182747-158.1450331l8.2237531-7.14062165 8.17485028 7.18020722c3.25666702 2.8548517 72.05884473 64.47050979 91.39392056 158.07284678 9.05392925-17.56222691 18.35004131-44.00685966 18.35004132-79.53183061 0-25.25123129-4.71325923-54.95123399-17.57342492-88.9707702l-7.60781597-20.11785444 21.24459805 3.39974144c3.10530162 0.50064725 70.25294905 12.55925077 135.89742933 78.82626845-1.32618695-36.42147726-15.8816347-100.89780907-96.25039417-143.93714006l-17.78067798-9.52044088 16.46147812-11.64877256c1.96541099-1.38783971 43.57669205-30.05161927 123.8814117-36.92911047-42.1433856-26.0813733-126.14140131-61.03583971-213.88860075 0.76261376l-12.02183851 8.46558891c0 0-36.42064099-75.59534933-50.72808504-105.27439417-14.28997917 29.67904483-50.71877006 105.27439417-50.71877006 105.27439417l-12.02416754-8.46558891c-87.74836338-61.79030243-171.74288498-26.84398706-213.88860075-0.76261376 80.29889877 6.8774912 121.92415175 35.54127075 123.8814117 36.92911047L376.70046037 218.45094514z" p-id="1780"></path></svg>