<?xml version="1.0" standalone="no"?><!DOCTYPE svg PUBLIC "-//W3C//DTD SVG 1.1//EN" "http://www.w3.org/Graphics/SVG/1.1/DTD/svg11.dtd"><svg t="1614321809446" class="icon" viewBox="0 0 1058 1024" version="1.1" xmlns="http://www.w3.org/2000/svg" p-id="1884" xmlns:xlink="http://www.w3.org/1999/xlink" width="206.640625" height="200"><defs><style type="text/css"></style></defs><path d="M961.85937527 831.78125001c0 11.8125-2.025 22.865625-6.04687527 33.13125026a82.65937527 82.65937527 0 0 1-17.15624973 27.084375 79.76249973 79.76249973 0 0 1-26.04375027 18.19687446 80.38125027 80.38125027 0 0 1-32.51249973 6.52500054H205.57812473c-11.75624973 0-22.89374973-2.16562527-33.44062473-6.52500054a89.015625 89.015625 0 0 1-27.87187473-18.19687446 86.821875 86.821875 0 0 1-19.06875-27.084375A79.59374973 79.59374973 0 0 1 118.24999973 831.78125001V365.75000027c0-23.68125027 8.21249973-43.76250027 24.60937527-60.24375a81.36562473 81.36562473 0 0 1 59.93437473-24.75000054h674.49375c23.56874973 0 43.5375 8.24062527 59.93437554 24.75000054 16.42500027 16.48124973 24.6375 36.56249973 24.6375 60.24375v127.01249973h-210.90937527c-23.540625 0-43.5375 8.07187527-59.93437473 24.27187527-16.42500027 16.2-24.60937527 36.14062473-24.60937526 59.76562473 0.61874973 16.2 4.02187527 30.54375001 10.20937499 42.97499973 4.978125 10.60312527 13.1625 20.25 24.6375 28.96875054 11.44687527 8.71874973 28.0125 13.078125 49.696875 13.078125h210.90937527v169.98749946-0.05624946zM835.49375001 237.83750027H413.703125c33.46875027-17.43750027 65.053125-34.25625001 94.78124973-50.42812527 26.01562473-13.72500027 51.721875-27.421875 77.11875-41.09062501 25.36875027-13.69687473 45.19687527-24.27187527 59.45625027-31.78125026 21.65625027-11.8125 41.03437473-17.26875027 58.05-16.34062446 17.04375001 0.928125 31.44375027 3.88125001 43.2 8.859375 13.64062527 6.86249973 25.396875 15.89062473 35.32500027 27.084375l53.85937472 103.696875zM709.15625027 576.85625027c0-11.84062473 4.02187527-21.82500027 12.065625-29.89687554a40.30312527 40.30312527 0 0 1 29.72812473-12.15c11.78437527 0 21.65625027 4.05 29.72812473 12.15 8.04374973 8.07187527 12.065625 18.05625001 12.065625 29.89687554 0 11.8125-4.02187527 21.9375-12.09374973 30.34687446a39.51562473 39.51562473 0 0 1-29.7 12.60000054c-11.78437527 0-21.65625027-4.21875001-29.72812473-12.60000054a42.32812527 42.32812527 0 0 1-12.09375054-30.375z" fill="#000000" p-id="1885"></path></svg>